<svg xmlns="http://www.w3.org/2000/svg" viewBox="0 0 100 100">
  <rect width="100" height="100" rx="22" fill="#080b0f"/>
  <defs>
    <radialGradient id="cg">
      <stop offset="0%" stop-color="#FFE066"/>
      <stop offset="100%" stop-color="#E8890A"/>
    </radialGradient>
  </defs>
  <circle cx="50" cy="50" r="52" fill="#F5A623" opacity="0.06"/>
  <circle cx="50" cy="50" r="44" stroke="#F5A623" stroke-width="0.8" stroke-dasharray="2 6" opacity="0.25" fill="none"/>
  <g stroke="#F5A623" stroke-linecap="round">
    <line x1="50" y1="6" x2="50" y2="18" stroke-width="4"/>
    <line x1="50" y1="82" x2="50" y2="94" stroke-width="4"/>
    <line x1="6" y1="50" x2="18" y2="50" stroke-width="4"/>
    <line x1="82" y1="50" x2="94" y2="50" stroke-width="4"/>
    <line x1="17" y1="17" x2="26" y2="26" stroke-width="3" opacity="0.8"/>
    <line x1="74" y1="74" x2="83" y2="83" stroke-width="3" opacity="0.8"/>
    <line x1="83" y1="17" x2="74" y2="26" stroke-width="3" opacity="0.8"/>
    <line x1="26" y1="74" x2="17" y2="83" stroke-width="3" opacity="0.8"/>
    <line x1="32" y1="7" x2="34" y2="14" stroke-width="2" opacity="0.4"/>
    <line x1="68" y1="86" x2="66" y2="93" stroke-width="2" opacity="0.4"/>
    <line x1="93" y1="32" x2="86" y2="34" stroke-width="2" opacity="0.4"/>
    <line x1="7" y1="68" x2="14" y2="66" stroke-width="2" opacity="0.4"/>
    <line x1="68" y1="7" x2="66" y2="14" stroke-width="2" opacity="0.4"/>
    <line x1="32" y1="86" x2="34" y2="93" stroke-width="2" opacity="0.4"/>
    <line x1="7" y1="32" x2="14" y2="34" stroke-width="2" opacity="0.4"/>
    <line x1="93" y1="68" x2="86" y2="66" stroke-width="2" opacity="0.4"/>
  </g>
  <circle cx="50" cy="50" r="22" fill="url(#cg)"/>
  <circle cx="43" cy="44" r="7" fill="#FFE580" opacity="0.28"/>
  <circle cx="50" cy="50" r="22" fill="none" stroke="#FFE066" stroke-width="1.2" opacity="0.4"/>
</svg>
